<?xml version="1.0" encoding="UTF-8"?>
<svg width="85px" height="20px" viewBox="0 0 85 20" version="1.1" xmlns="http://www.w3.org/2000/svg" xmlns:xlink="http://www.w3.org/1999/xlink">
    <!-- Generator: Sketch 45.2 (43514) - http://www.bohemiancoding.com/sketch -->
    <title>logo</title>
    <desc>Created with Sketch.</desc>
    <defs></defs>
    <g id="Page-1" stroke="none" stroke-width="1" fill="none" fill-rule="evenodd">
        <g id="Dashboard-최종안" transform="translate(-24.000000, -23.000000)">
            <g id="logo" transform="translate(24.000000, 23.000000)">
                <g id="Group-3" transform="translate(18.728975, 0.091630)" fill="#FFFFFF">
                    <path d="M7.50887297,0.0268369622 C3.3299407,0.0268369622 0.0565188321,3.25711107 0.0565188321,7.38104179 C0.0565188321,11.460995 3.2954462,14.6571302 7.43051947,14.6571302 C11.6094517,14.6571302 14.8827551,11.4268561 14.8827551,7.30292536 C14.8827551,3.15493147 11.7125796,0.0268369622 7.50887297,0.0268369622 M7.46963695,12.0626929 C4.82280599,12.0626929 2.82674766,10.0332069 2.82674766,7.34180577 C2.82674766,4.65064166 4.82280599,2.6212742 7.46963695,2.6212742 C10.1161123,2.6212742 12.1120521,4.65064166 12.1120521,7.34180577 C12.1120521,10.0332069 10.1161123,12.0626929 7.46963695,12.0626929" id="Fill-1"></path>
                </g>
                <path d="M44.9412433,0.127025127 L39.1758008,0.127025127 C39.0448166,0.127025127 38.9387252,0.233116475 38.9387252,0.364100765 L38.9387252,14.5515367 C38.9387252,14.6824024 39.0448166,14.7886123 39.1758008,14.7886123 L41.4561129,14.7886123 C41.5867415,14.7886123 41.6927144,14.6828766 41.6931885,14.5522479 L41.708954,9.89714924 C41.7093096,9.76652056 41.815401,9.66090336 41.9460297,9.66090336 L44.8630083,9.66090336 C47.9202172,9.66090336 50.5190404,7.64777559 50.5190404,4.8742277 C50.5190404,2.07922447 48.0017712,0.127025127 44.9412433,0.127025127 M41.7097838,7.04501078 L41.7097838,2.80206809 C41.7097838,2.6710838 41.8158751,2.56499245 41.9468594,2.56499245 L44.7061828,2.56499245 C46.2983828,2.56499245 47.6915578,3.51661406 47.6915578,4.93314099 C47.6915578,6.33816976 46.2983828,7.28208641 44.7061828,7.28208641 L41.9468594,7.28208641 C41.8158751,7.28208641 41.7097838,7.17599507 41.7097838,7.04501078" id="Fill-4" fill="#FFFFFF"></path>
                <path d="M14.7003846,6.62449786 L9.59721299,6.62449786 C9.52277124,6.62449786 9.45259685,6.65946652 9.40778956,6.71897251 L8.10375501,8.45140273 C7.98604696,8.60751704 8.09759105,8.83096082 8.29305991,8.83096082 L11.6670018,8.83096082 C11.8302284,8.83096082 11.9467511,8.99300202 11.8913939,9.14662704 C11.2447701,10.9406969 9.58903388,12.1542871 7.54318967,12.1542871 C6.84725413,12.1542871 6.19814104,12.0107378 5.61671303,11.7550517 C3.98658095,11.0380165 2.90030038,9.41713034 2.90030038,7.43339994 C2.90030038,4.74223584 4.89624017,2.71286838 7.54318967,2.71286838 C8.92569625,2.71286838 10.1305146,3.26679561 10.9660877,4.17941827 C11.0668449,4.28942137 11.2415696,4.28302033 11.3313027,4.16388982 L12.6963843,2.35049826 C12.7689294,2.25412702 12.7588537,2.11733438 12.6701874,2.03566182 C11.3662714,0.83499225 9.59306417,0.118549673 7.58242569,0.118549673 C3.40337488,0.118549673 0.130071549,3.34870524 0.130071549,7.47263596 C0.130071549,10.2931248 1.67900523,12.6896039 4.00092403,13.901416 C5.03765579,14.4424226 6.22753842,14.7487244 7.50407219,14.7487244 C11.6830045,14.7487244 14.9561892,11.5184503 14.9561892,7.39463807 C14.9561892,7.20829662 14.9497882,7.02420739 14.9372232,6.84225184 C14.9286885,6.71897251 14.823901,6.62449786 14.7003846,6.62449786" id="Fill-6" fill="#FFFFFF"></path>
                <path d="M58.7280925,8.50634501 L60.3602397,4.39983935 C60.439423,4.20069581 60.7210689,4.20045874 60.8006077,4.39948373 L62.4411711,8.50598939 C62.503522,8.66174809 62.3887774,8.83102009 62.221165,8.83102009 L58.9483358,8.83102009 C58.7808418,8.83102009 58.6663343,8.66198516 58.7280925,8.50634501 M65.1114726,14.7879011 L67.6034932,14.7879011 C67.7726466,14.7879011 67.8873912,14.6160213 67.8225511,14.459907 L61.9318141,0.273182257 C61.8950674,0.184634507 61.8086533,0.127025127 61.7128748,0.127025127 L59.5879658,0.127025127 C59.4921873,0.127025127 59.4057732,0.184634507 59.3690265,0.273182257 L53.4784081,14.459907 C53.4135679,14.6160213 53.5283125,14.7879011 53.697466,14.7879011 L56.0707117,14.7879011 C56.1677942,14.7879011 56.2551565,14.7286322 56.290955,14.6384249 L57.6627931,11.1870778 C57.6985916,11.096752 57.7859539,11.0374831 57.8830364,11.0374831 L63.2920356,11.0374831 C63.3889995,11.0374831 63.4762434,11.0966334 63.5121603,11.1867222 L64.8912293,14.6387805 C64.9272648,14.7288693 65.0145087,14.7879011 65.1114726,14.7879011" id="Fill-8" fill="#FFFFFF"></path>
                <g id="Group-12" transform="translate(0.000000, 0.091630)" fill="#FFBA00">
                    <path d="M82.1492571,0.129858181 L69.2792505,17.2262122 C69.2344432,17.2857182 69.1642688,17.3205683 69.089827,17.3205683 L1.47621073,17.3205683 C1.40165044,17.3205683 1.33147605,17.3556555 1.28678729,17.4151615 L0.0480670856,19.0604664 C-0.0695224308,19.2168178 0.0420216568,19.440143 0.23749052,19.440143 L70.4000255,19.440143 C70.4744673,19.440143 70.5446417,19.4051744 70.5893304,19.3456684 L84.8451627,0.415060173 C84.9627522,0.258827328 84.8514452,0.0353835389 84.6558578,0.0353835389 L82.338799,0.0353835389 C82.2642388,0.0353835389 82.1940644,0.0703521955 82.1492571,0.129858181" id="Fill-10"></path>
                </g>
                <path d="M74.0648474,0.127025127 L71.7476701,0.127025127 C71.5520827,0.127025127 71.4405387,0.350468915 71.5582467,0.506701761 L76.3013005,6.80722391 L77.7567078,4.87399062 L74.2542709,0.221499768 C74.2094636,0.161993783 74.1392892,0.127025127 74.0648474,0.127025127" id="Fill-13" fill="#FFFFFF"></path>
                <g id="Group-17" transform="translate(78.590574, 7.915126)" fill="#FFFFFF">
                    <path d="M3.83685583,6.87273976 L6.15403311,6.87273976 C6.34962052,6.87273976 6.4611646,6.64929598 6.34345655,6.49306313 L1.51078821,0.0734104712 L0.0551437934,2.00628815 L3.6474324,6.77826512 C3.69223969,6.83777111 3.76241408,6.87273976 3.83685583,6.87273976" id="Fill-15"></path>
                </g>
            </g>
        </g>
    </g>
</svg>